<?xml version="1.0" encoding="utf-8"?>
<svg viewBox="0 0 500 500" xmlns="http://www.w3.org/2000/svg">
  <defs>
    <pattern id="pattern-0" x="0" y="0" width="20" height="20" patternUnits="userSpaceOnUse" viewBox="0 0 100 100">
      <path d="M 0 0 L 50 0 L 50 100 L 0 100 Z" style="fill: black;"/>
    </pattern>
  </defs>
    <path d="M 539 161 L 539 161 Z" style="fill: none; stroke: black;"/>
  <path d="M -81 229 L -81 229 Z" style="fill: none; stroke: black;"/>
  <path d="M 118 210 Z" style="fill: none; stroke: rgb(0, 0, 0); stroke-width: 5;"/>
  <path d="M 108 227 L 108 134 L 237 134 L 237 226" style="fill: none; stroke: rgb(0, 0, 0); stroke-width: 5;"/>
  <path d="M 540 272 L 540 272 Z" style="fill: none; stroke: black;"/>
  <path d="M 109 136 L 130 157 L 211 157 L 236 136" style="fill: none; stroke: black;"/>
  <path d="M 130 157 L 130 202 L 211 202 L 211 157" style="fill: none; stroke: black;"/>
  <path d="M 130 201 L 108 225" style="fill: none; stroke: black;"/>
  <path d="M 211 201 L 236 225" style="fill: none; stroke: black;"/>
  <path d="M -162 188 L -162 188 Z" style="fill: none; stroke: black;"/>
</svg>