<?xml version="1.0" encoding="utf-8"?>
<svg viewBox="0 0 500 500" xmlns="http://www.w3.org/2000/svg">
  <path d="M 125 225 L 125 130 L 280 130 L 280 222 M 160 158 L 252 158 L 252 205 L 160 205 L 160 158 Z M 124 129 L 160 159 M 160 205 L 126 225 M 251 157 L 279 130 M 251 205 L 280 221 M 160 165 L 252 165 M 159 173 L 251 173 M 160 179 L 252 179 M 159 187 L 251 187 M 159 193 L 251 193 M 161 199 L 253 199 M 166 158 L 166 205 M 173 205 L 172 158 M 178 157 L 179 205 M 185 205 L 183 158 M 189 158 L 190 206 M 195 205 L 195 158 M 199 158 L 200 205 M 205 205 L 203 158 M 209 158 L 210 205 M 215 205 L 214 158 M 219 158 L 220 206 M 225 205 L 224 158 M 229 158 L 230 205 M 234 205 L 233 157 M 239 156 L 239 205 M 243 205 L 243 158 M 247 157 L 248 205 M 132 135 L 274 136 M 266.062 142.921 L 138.906 142.252 M 146.268 146.937 L 262.046 147.606 M 258.031 150.952 L 151.622 150.952 M 156.306 154.968 L 254.015 154.968 M 142.921 129.537 L 163.668 157.645 M 169.691 157.645 L 156.306 130.206 M 178.391 157.645 L 167.014 130.206 M 183.745 158.314 C 183.745 158.314 177.722 128.867 177.722 129.537 M 189.099 157.645 L 187.761 129.537 M 195.791 157.645 L 197.13 130.206 M 246.654 157.645 L 264.723 130.875 M 239.292 157.645 L 256.023 130.206 M 232.6 157.645 L 243.977 130.206 M 225.238 157.645 L 234.607 130.206 M 219.215 158.314 L 225.238 130.206 M 213.192 157.645 L 216.538 129.537 M 202.484 156.975 L 203.153 129.537 M 207.838 157.645 L 210.515 130.206 M 132.883 136.229 L 132.883 220.553 M 139.575 141.583 L 139.575 216.538 M 146.268 146.268 L 146.268 212.522 M 150.952 151.622 L 151.622 209.846 M 156.975 155.637 L 156.306 207.169 M 125.521 140.244 L 158.983 160.322 M 159.652 166.345 L 125.521 153.629 M 159.652 173.037 L 126.19 165.006 M 159.652 179.73 L 125.521 177.053 M 159.652 186.422 L 126.19 190.438 M 159.652 193.115 L 125.521 203.822 M 159.652 199.138 L 126.86 215.869 M 274.093 136.229 L 274.093 217.207 M 266.062 142.921 L 266.731 212.522 M 261.377 147.606 L 262.046 209.176 M 257.362 150.952 L 257.362 207.838 M 254.015 155.637 L 254.015 205.83 M 253.346 165.006 L 280.785 148.275 M 253.346 173.037 L 280.116 162.329 M 252.677 179.06 L 280.116 176.383 M 253.346 186.422 L 280.116 188.43 M 253.346 191.776 L 280.116 201.815 M 252.677 199.138 L 280.785 212.522" style="fill: none; stroke: black;"/>
</svg>