<?xml version="1.0" encoding="utf-8"?>
<svg viewBox="0 0 500 500" xmlns="http://www.w3.org/2000/svg" xmlns:xlink="http://www.w3.org/1999/xlink">
  <defs>
    <style id="bx-google-fonts">@import url(https://fonts.googleapis.com/css?family=Amiko:400,600,700|Abril+Fatface:400|Schoolbell:400);</style>
    <symbol id="symbol-0" viewBox="0 0 27.609 107.079">
      <path d="M 320.52 343.025 C 320.52 342.133 320.52 341.24 320.52 340.348 C 320.52 337.671 320.52 335.663 320.52 333.655 C 320.52 330.532 320.52 328.078 320.52 325.625 C 320.52 322.617 319.182 319.356 319.182 318.263 C 316.333 318.263 317.173 321.025 317.173 322.948 C 317.173 326.071 317.173 328.525 317.173 330.979 C 317.173 334.102 317.173 336.556 317.173 339.009 C 317.173 341.713 316.505 345.443 316.505 346.371 C 316.505 344.736 314.496 344.945 314.496 342.356 C 313.828 339.694 312.488 339.462 312.488 337.002 C 312.488 334.253 311.755 332.986 309.143 332.986 C 309.143 335.662 309.811 339.449 309.811 340.348 C 309.811 342.617 310.482 345.873 310.482 346.371 C 310.482 349.41 312.488 348.686 312.488 351.056 C 312.488 352.298 313.449 356.41 313.828 356.41 C 313.828 359.087 313.828 361.094 313.828 363.102 C 313.828 364.994 313.159 364.836 313.159 366.448 C 313.159 370.541 311.82 372.214 311.82 375.818 C 311.82 380.183 311.151 384.617 311.151 387.864 C 311.151 388.756 311.151 389.649 311.151 390.541 C 311.151 394.358 309.811 398.093 309.811 400.58 C 309.811 407.893 308.474 413.967 308.474 421.326 C 312.672 423.171 314.758 423.334 318.513 423.334 C 321.635 423.334 324.09 423.334 326.543 423.334 C 327.16 422.665 329.012 420.657 329.22 420.657" style="stroke: black; fill: none;" transform="matrix(0.9999999999999999, 0, 0, 0.9999999999999999, -308.4739990234375, -316.2550048828125)"/>
      <path d="M 320.52 326.294 C 320.52 323.617 320.52 321.609 320.52 319.601 C 321.189 318.202 324.535 317.086 324.535 316.255 C 325.204 318.263 325.204 320.271 325.204 322.278 C 325.204 325.178 325.204 327.409 325.204 329.64 C 325.204 332.986 325.204 335.663 325.204 338.34 C 324.016 339.009 324.535 341.911 324.535 343.025" style="stroke: black; fill: none;" transform="matrix(0.9999999999999999, 0, 0, 0.9999999999999999, -308.4739990234375, -316.2550048828125)"/>
      <path d="M 325.204 324.955 C 325.204 322.064 327.212 318.602 327.212 316.924 C 329.309 316.255 328.551 318.475 328.551 319.601 C 328.551 322.35 329.22 322.693 329.22 324.955 C 329.22 329.138 329.889 330.691 329.889 334.325 C 329.889 336.684 330.384 339.853 329.22 341.017 C 329.22 343.047 328.551 344.666 328.551 346.371" style="stroke: black; fill: none;" transform="matrix(0.9999999999999999, 0, 0, 0.9999999999999999, -308.4739990234375, -316.2550048828125)"/>
      <path d="M 329.889 330.979 C 329.889 328.277 331.406 326.294 333.236 326.294 C 336.083 326.294 335.243 329.056 335.243 330.979 C 335.243 333.707 333.905 337.076 333.905 340.348 C 333.905 342.974 333.236 345.53 333.236 347.04 C 333.236 349.318 332.167 351.725 330.559 351.725 C 329.889 352.412 327.272 355.74 327.212 355.74 C 327.212 358.487 325.874 358.32 325.874 361.094 C 325.874 362.874 325.204 365.693 325.204 367.787 C 325.204 369.407 324.294 374.479 323.866 374.479 C 323.866 380.439 322.527 384.963 322.527 389.872 C 322.527 392.772 322.527 395.003 322.527 397.233 C 322.527 400.58 322.527 403.257 322.527 405.934 C 322.527 408.61 322.527 410.618 322.527 412.626 C 324.18 414.947 323.866 416.606 323.866 419.318 C 323.866 421.103 323.866 422.218 323.866 423.334" style="stroke: black; fill: none;" transform="matrix(0.9999999999999999, 0, 0, 0.9999999999999999, -308.4739990234375, -316.2550048828125)"/>
      <path d="M 316.505 353.063 C 326.013 355.273 321.583 353.063 324.535 353.063" style="stroke: black; fill: none;" transform="matrix(0.9999999999999999, 0, 0, 0.9999999999999999, -308.4739990234375, -316.2550048828125)"/>
      <path d="M 323.197 345.702 C 323.866 347.696 327.882 346.56 327.882 347.71 L 328.551 348.379" style="stroke: black; fill: none;" transform="matrix(0.9999999999999999, 0, 0, 0.9999999999999999, -308.4739990234375, -316.2550048828125)"/>
    </symbol>
  </defs>
  <path d="M -2.905 242.708 L 504.981 139.666 L 504.307 -5.65 L -11.673 -4.329 L -11.673 247.992 L -2.905 242.708 Z" style="stroke: black;"/>
  <text x="1.713" y="55.399" style="fill: rgb(255, 255, 255); font-family: Amiko; font-size: 39px; font-style: italic; font-weight: bold; stroke: rgb(255, 255, 255); text-transform: capitalize; white-space: pre;">Kaip balsuoti rinkimuose</text>
  <path d="M 649.247 354.401 L 649.247 354.401 Z" style="fill: none; stroke: black;"/>
  <text x="21.788" y="141.913" transform="matrix(0.984808, -0.173648, 0.173648, 0.984807, 92.535599, 55.627689)" style="fill: rgb(255, 229, 0); font-family: Schoolbell; font-size: 70px; font-variant: small-caps; stroke: rgb(255, 229, 0); text-transform: uppercase; white-space: pre;">dummies</text>
  <ellipse cx="-204.157" cy="-345.367" rx="59.228" ry="59.228" transform="matrix(0, 1.000001, 1, 0, 576.628296, 705.457143)"/>
  <path d="M 197.465 382.51 L 228.92 459.472 L 253.682 383.848" style="stroke: black; fill: rgb(255, 255, 255);"/>
  <ellipse transform="matrix(1.000001, 0, 0, 1, -258.2898, 146.267441)" cx="466.126" cy="224.865" rx="18.404" ry="17.4" style="stroke: rgb(0, 0, 0); fill: rgb(255, 255, 255);"/>
  <ellipse cx="147.272" cy="156.975" rx="18.404" ry="17.4" style="fill: rgb(255, 255, 255); stroke: rgb(0, 0, 0);" transform="matrix(1, 0, 0, 0.999998, 96.370697, 212.818909)"/>
  <path d="M 221.558 393.217 L 225.573 405.933 L 228.25 391.879" style="fill: none; stroke: black;"/>
  <ellipse cx="118.829" cy="159.317" rx="4.35" ry="4.35" style="stroke: rgb(0, 0, 0);" transform="matrix(1.000002, 0, 0, 1, 96.370496, 212.818649)"/>
  <ellipse cx="245.651" cy="370.463" rx="4.35" ry="4.35" style="stroke: rgb(0, 0, 0);"/>
  <path d="M 190.773 351.055 C 195.711 345.448 202.327 345.032 210.181 345.032 L 210.85 345.032" style="stroke: black; fill: none;"/>
  <path d="M 239.628 345.032 C 243.777 341.552 256.67 345.343 258.366 347.04 C 259.217 347.891 260.146 351.055 261.043 351.055" style="stroke: black; fill: none;"/>
  <path d="M 189.434 367.117 L 180.734 335.663 L 172.703 324.955 L 187.427 328.97 C 187.427 328.97 192.111 314.916 192.781 314.916 C 193.451 314.916 196.127 328.97 196.127 328.97 L 205.496 315.585 L 206.835 330.978 L 211.519 318.932 L 215.535 326.963 L 220.22 311.57 C 220.22 311.57 233.604 326.963 233.604 326.293 C 233.604 325.623 240.966 318.262 240.966 318.262 L 245.651 325.624 L 247.657 313.578 L 256.359 326.963 C 256.359 326.963 263.051 318.932 263.051 318.262 C 263.051 317.592 263.72 326.963 263.72 326.963 L 281.79 315.585 L 272.42 330.978 L 261.712 363.771 L 263.72 339.009 L 263.051 332.316 L 197.465 337.001 L 189.434 338.34 L 186.757 355.071" style="stroke: black;"/>
  <path d="M 255.019 383.179 C 255.961 385.73 258.366 387.097 258.366 389.202 C 269.56 389.202 268.405 369.948 268.405 361.094 C 268.405 358.995 263.72 359.797 263.72 360.425 C 263.051 360.74 262.381 360.778 262.381 361.094" style="stroke: black; fill: none;"/>
  <path d="M 188.096 363.771 C 187.427 361.885 182.073 360.425 182.073 363.102 C 181.404 373.085 188.096 376.519 188.096 385.187 C 188.765 390.349 195.829 386.525 196.796 386.525 L 196.796 385.856" style="stroke: black; fill: none;"/>
  <use width="27.608999252319336" height="107.0790023803711" transform="matrix(0.8500454425811765, 0.5952082276344299, -0.764574348926544, 1.0919253826141357, -99.96599975585937, -553.6930068969727)" x="879.1954956054688" y="373.46049880981445" xlink:href="#symbol-0"/>
  <use width="27.608999252319336" height="107.0790023803711" transform="matrix(-0.8500455021858216, 0.5952081680297853, 0.7645743489265442, 1.0919253826141357, 566.8386450195314, -549.6777279663087)" x="879.1954956054688" y="373.46049880981445" xlink:href="#symbol-0"/>
  <ellipse transform="matrix(0.999995, 0, 0, 1, -285.390222, -9.665527)" cx="513.308" cy="431.66" rx="6.023" ry="6.692" style="fill: rgb(255, 255, 255); stroke: rgb(0, 0, 0);"/>
  <text x="193.783" y="297.516" style="font-family: &quot;Abril Fatface&quot;; font-size: 102px; white-space: pre;">?</text>
  <text x="191.776" y="92.059" transform="matrix(0.984809, -0.173647, 0.173648, 0.984808, -9.526033, 59.311882)" style="fill: rgb(255, 229, 0); font-family: Schoolbell; font-size: 36px; stroke: rgb(255, 229, 0); text-transform: uppercase; white-space: pre;">for</text>
  <path d="M 654.222 51.905 L 654.222 51.905 Z" style="fill: none; stroke: black;"/>
  <rect x="124.863" y="500.143" width="266.007" height="72.688" style="fill: rgb(255, 255, 255);"/>
</svg>