<?xml version="1.0" encoding="utf-8"?>
<svg viewBox="0 0 500 500" xmlns="http://www.w3.org/2000/svg">
  <defs>
    <style id="bx-google-fonts">@import url(https://fonts.googleapis.com/css?family=Archivo+Narrow:400,400italic,700,700italic);</style>
    <symbol id="symbol-0" viewBox="0 0 118.456 248.9583">
      <ellipse cx="204.157" cy="345.367" rx="59.228" ry="59.228" transform="matrix(0, -0.9999989867210387, -0.9999999999999999, 0, 404.59503173828125, 393.8871612548828)"/>
      <path d="M 338.674 205.161 L 370.129 282.123 L 394.891 206.499" style="stroke: black; fill: rgb(255, 255, 255);" transform="matrix(0.9999999999999999, 0, 0, 0.9999999999999999, -313.24310302734375, -134.2209930419922)"/>
      <ellipse transform="matrix(1.0000020265579224, 0, 0, 0.9999999999999999, -430.32303619384766, -165.30242919921875)" cx="466.126" cy="224.865" rx="18.404" ry="17.4" style="stroke: rgb(0, 0, 0); fill: rgb(255, 255, 255);"/>
      <ellipse cx="384.852" cy="192.445" rx="18.404" ry="17.4" style="fill: rgb(255, 255, 255); stroke: rgb(0, 0, 0);" transform="matrix(0.9999999999999999, 0, 0, 0.9999999999999999, -313.24310302734375, -134.2209930419922)"/>
      <path d="M 362.767 215.868 L 366.782 228.584 L 369.459 214.53" style="fill: none; stroke: black;" transform="matrix(0.9999999999999999, 0, 0, 0.9999999999999999, -313.24310302734375, -134.2209930419922)"/>
      <ellipse cx="188.095" cy="216.203" rx="4.35" ry="4.35" style="stroke: rgb(0, 0, 0);" transform="matrix(1.0000070333480835, 0, 0, 0.9999999999999999, -144.93035888671875, -155.63690185546875)"/>
      <ellipse cx="386.86" cy="193.114" rx="4.35" ry="4.35" style="stroke: rgb(0, 0, 0);" transform="matrix(0.9999999999999999, 0, 0, 0.9999999999999999, -313.24310302734375, -134.2209930419922)"/>
      <path d="M 331.982 173.706 C 336.92 168.099 343.536 167.683 351.39 167.683 L 352.059 167.683" style="stroke: black; fill: none;" transform="matrix(0.9999999999999999, 0, 0, 0.9999999999999999, -313.24310302734375, -134.2209930419922)"/>
      <path d="M 380.837 167.683 C 384.986 164.203 397.879 167.994 399.575 169.691 C 400.426 170.542 401.355 173.706 402.252 173.706" style="stroke: black; fill: none;" transform="matrix(0.9999999999999999, 0, 0, 0.9999999999999999, -313.24310302734375, -134.2209930419922)"/>
      <path d="M 330.643 189.768 L 321.943 158.314 L 313.912 147.606 L 328.636 151.621 C 328.636 151.621 333.32 137.567 333.99 137.567 C 334.66 137.567 337.336 151.621 337.336 151.621 L 346.705 138.236 L 348.044 153.629 L 352.728 141.583 L 356.744 149.614 L 361.429 134.221 C 361.429 134.221 374.813 149.614 374.813 148.944 C 374.813 148.274 382.175 140.913 382.175 140.913 L 386.86 148.275 L 388.867 136.229 L 397.568 149.614 C 397.568 149.614 404.26 141.583 404.26 140.913 C 404.26 140.243 404.929 149.614 404.929 149.614 L 422.999 138.236 L 413.629 153.629 L 402.921 186.422 L 404.929 161.66 L 404.26 154.967 L 338.674 159.652 L 330.643 160.991 L 327.966 177.722" style="stroke: black;" transform="matrix(0.9999999999999999, 0, 0, 0.9999999999999999, -313.24310302734375, -134.2209930419922)"/>
      <path d="M 396.229 205.83 C 397.17 208.381 399.575 209.748 399.575 211.853 C 410.769 211.853 409.614 192.599 409.614 183.745 C 409.614 181.646 404.929 182.448 404.929 183.076 C 404.26 183.391 403.591 183.429 403.591 183.745" style="stroke: black; fill: none;" transform="matrix(0.9999999999999999, 0, 0, 0.9999999999999999, -313.24310302734375, -134.2209930419922)"/>
      <path d="M 329.305 186.422 C 328.636 184.536 323.282 183.076 323.282 185.753 C 322.613 195.736 329.305 199.17 329.305 207.838 C 329.974 213 337.038 209.176 338.005 209.176 L 338.005 208.507" style="stroke: black; fill: none;" transform="matrix(0.9999999999999999, 0, 0, 0.9999999999999999, -313.24310302734375, -134.2209930419922)"/>
    </symbol>
  </defs>
  <text x="13.758" y="65.959" style="font-family: &quot;Archivo Narrow&quot;; font-size: 50px; font-variant: small-caps; text-transform: capitalize; white-space: pre;">Nueiti į balsavimo apylinkę</text>
  <g>
    <ellipse cx="195.122" cy="192.445" rx="33.844" ry="33.844" style="stroke: rgb(0, 0, 0); stroke-width: 3; fill: rgb(255, 255, 255);"/>
    <path d="M 194.167 227.342 L 193.02 346.657 L 248.088 397.136" style="fill: none; stroke: rgb(0, 0, 0); stroke-width: 3;"/>
    <path d="M 193.879 346.467 L 138.81 395.799" style="fill: none; stroke: rgb(0, 0, 0); stroke-width: 3;"/>
    <path d="M 194.453 247.992 L 220.553 284.801 L 262.716 284.131" style="fill: none; stroke: black; stroke-width: 3;"/>
    <path d="M 225.238 204.492 C 223.739 204.492 222.425 205.83 221.223 205.83 C 211.113 205.83 202.012 204.492 193.115 204.492 C 200.524 214.423 206.463 213.861 216.538 213.861 C 218.323 213.861 219.438 213.861 220.553 213.861" style="fill: none; stroke: rgb(0, 0, 0);"/>
    <ellipse transform="matrix(1.000003, 0, 0, 1, -285.392816, -9.665527)" cx="494.902" cy="195.418" rx="5.019" ry="5.354" style="fill: rgb(255, 255, 255); stroke: rgb(0, 0, 0);"/>
  </g>
  <path d="M 193.115 240.631 Z" style="stroke: black; fill: none; stroke-width: 3;"/>
  <path d="M 571.905 247.992 L 571.905 247.992 Z" style="fill: none; stroke: black;"/>
  <path d="M 419.318 227.915 L 419.318 227.915 Z" style="fill: none; stroke: black;"/>
  <rect x="262.716" y="146.937" width="173.333" height="240.927" style="stroke: rgb(0, 0, 0); fill: rgb(255, 255, 255); stroke-width: 2;"/>
</svg>